<svg id="Layer_1" data-name="Layer 1" xmlns="http://www.w3.org/2000/svg" viewBox="0 0 32.58 31.77"><defs><style>.cls-1{fill:#181616;fill-rule:evenodd;}</style></defs><path class="cls-1" d="M959.66,523.94a16.29,16.29,0,0,0-5.15,31.75c.82.15,1.12-.36,1.12-.79s0-1.41,0-2.77c-4.53,1-5.48-2.18-5.48-2.18a4.36,4.36,0,0,0-1.81-2.39c-1.48-1,.11-1,.11-1a3.43,3.43,0,0,1,2.49,1.68,3.49,3.49,0,0,0,4.75,1.36,3.41,3.41,0,0,1,1-2.18c-3.62-.41-7.42-1.81-7.42-8A6.26,6.26,0,0,1,951,535a5.83,5.83,0,0,1,.16-4.31s1.36-.44,4.48,1.67a15.37,15.37,0,0,1,8.15,0c3.11-2.11,4.48-1.67,4.48-1.67a5.83,5.83,0,0,1,.16,4.31,6.3,6.3,0,0,1,1.67,4.37c0,6.26-3.81,7.63-7.43,8a3.88,3.88,0,0,1,1.1,3c0,2.18,0,3.94,0,4.47s.3.94,1.12.78a16.29,16.29,0,0,0-5.16-31.74Z" transform="translate(-943.37 -523.94)"/></svg>