<svg xmlns="http://www.w3.org/2000/svg" viewBox="0 0 16 16">
  <defs>
    <style>.canvas{fill: none; opacity: 0;}.light-defaultgrey{fill: #212121; opacity: 1;}.light-defaultgrey-10{fill: #212121; opacity: 0.1;}.cls-1{opacity:0.75;}</style>
  </defs>
  <title>PackageReference</title>
  <g id="canvas">
    <path class="canvas" d="M16,16H0V0H16Z" />
  </g>
  <g id="level-1">
    <path class="light-defaultgrey" d="M8.114,7.531h-2.8a2.584,2.584,0,0,0-2.583,2.583v2.8a2.583,2.583,0,0,0,2.583,2.582h2.8A2.582,2.582,0,0,0,10.7,12.912v-2.8A2.583,2.583,0,0,0,8.114,7.531ZM4.905,10.75A1.048,1.048,0,1,1,5.953,9.7,1.048,1.048,0,0,1,4.905,10.75Zm3.246,3.876a1.677,1.677,0,1,1,1.677-1.677A1.676,1.676,0,0,1,8.151,14.626ZM2.49,6.445A.844.844,0,1,1,1.647,5.6.843.843,0,0,1,2.49,6.445Z" />
    <g class="cls-1">
      <path class="light-defaultgrey-10" d="M15.5,1.5v5h-5v-5ZM2.5,4.821V2.5h3v3H3.221A1.833,1.833,0,0,0,2.5,4.821Z" />
      <path class="light-defaultgrey" d="M10,3.5v1H6v-1ZM10,1V7h6V1Zm5,5H11V2h4ZM3.423,5.977,6,6V2L2,2V4.637A1.845,1.845,0,0,1,3.423,5.977ZM3,3H5V5H3Z" />
    </g>
  </g>
</svg>
