<svg xmlns="http://www.w3.org/2000/svg" viewBox="0 0 16 16">
  <defs>
    <style>.canvas{fill: none; opacity: 0;}.light-yellow-10{fill: #996f00; opacity: 0.1;}.light-yellow{fill: #996f00; opacity: 1;}.light-defaultgrey{fill: #212121; opacity: 1;}</style>
  </defs>
  <title>IconLightPropertiesFolderClosed</title>
  <g id="canvas">
    <path class="canvas" d="M16,16H0V0H16Z" />
  </g>
  <g id="level-1">
    <path class="light-yellow-10" d="M14.5,3.5v9H9.162L9,13H8.832L6.851,11.019A3.983,3.983,0,0,0,3.666,6.046a4.059,4.059,0,0,0-.659-.054,4.017,4.017,0,0,0-1.74.4L1,6.519H1l.5-1.028V2.5h6l1,1Z" />
    <path class="light-yellow" d="M14.5,3H8.711l-.854-.854L7.5,2h-6L1,2.5V6.519l.263-.128A4.053,4.053,0,0,1,2,6.132V5H7.479l.353-.146L8.686,4H14v8H7.832l1,1H14.5l.5-.5v-9ZM7.272,4H2V3H7.3l.487.488Z" />
    <path class="light-defaultgrey" d="M.042,10.5A2.994,2.994,0,0,1,.3,8.705L2.286,10.7,3.7,9.282l-2-1.991a2.983,2.983,0,0,1,3.988,3.983L9,14.586v.707L8.3,16H7.59L4.278,12.688A2.98,2.98,0,0,1,.042,10.5Z" />
  </g>
</svg>
