<svg xmlns="http://www.w3.org/2000/svg" viewBox="0 0 16 16">
  <defs>
    <style>.canvas{fill: none; opacity: 0;}.light-yellow-10{fill: #996f00; opacity: 0.1;}.light-yellow-25{fill: #996f00; opacity: 0.25;}.light-yellow{fill: #996f00; opacity: 1;}.light-blue-10{fill: #005dba; opacity: 0.1;}.light-blue{fill: #005dba; opacity: 1;}</style>
  </defs>
  <title>IconLightWebFolderOpened</title>
  <g id="canvas" class="canvas">
    <path class="canvas" d="M16,16H0V0H16Z" />
  </g>
  <g id="level-1">
    <path class="light-yellow-10" d="M6.5,3.5l-1-1H.5V7.75A3.709,3.709,0,0,1,1,7.28a5.6,5.6,0,0,1,.89-.61c.15-.08.31-.16.47-.23a5.46,5.46,0,0,1,4.43.06H7.5l1-1h5v-2Z" />
    <path class="light-yellow-25" d="M8.5,5.5l-1,1H6.79a6.3,6.3,0,0,1,.8.45,5.617,5.617,0,0,1,1.97,2.4A5.322,5.322,0,0,1,9.97,12a2.738,2.738,0,0,1-.07.5h3.6l2-7Z" />
    <path class="light-yellow" d="M15.89,5.63l-1.87,7-.48.37H9.78a4.05,4.05,0,0,0,.12-.5,2.738,2.738,0,0,0,.07-.5h3.19L14,8.85,14.76,6H8.68l-.85.85-.24.1a6.3,6.3,0,0,0-.8-.45A5.5,5.5,0,0,0,4.51,6H7.27l.85-.85L8.47,5H13V4H6.5l-.35-.15L5.29,3H1V7.28a3.709,3.709,0,0,0-.5.47,4.188,4.188,0,0,0-.5.63V2.5L.5,2h5l.35.15L6.71,3H13.5l.5.5V5h1.41Z" />
    <path class="light-yellow-25" d="M13,6v6.5h1V6Z" />
    <path class="light-blue-10" d="M8.505,11.5a4,4,0,1,1-4-4A4,4,0,0,1,8.505,11.5Z" />
    <path class="light-blue" d="M8.641,9.748a4.491,4.491,0,1,0-2.388,5.885A4.473,4.473,0,0,0,8.641,9.748ZM3.646,9.24a3.464,3.464,0,0,1,.265-.718,2.073,2.073,0,0,1,.422-.57.214.214,0,0,1,.335.008,3.118,3.118,0,0,1,.687,1.3A7,7,0,0,1,5.519,10H3.482C3.524,9.758,3.578,9.506,3.646,9.24ZM.914,11h1.6c0,.454-.023.629,0,1H.914A4.071,4.071,0,0,1,.914,11Zm.3,2H2.6a6.533,6.533,0,0,0,.508,1.842A3.6,3.6,0,0,1,1.211,12.994ZM2.788,9.053c-.079.317-.141.632-.188.944H1.211A3.608,3.608,0,0,1,3.123,8.148,4.159,4.159,0,0,0,2.788,9.053Zm2.239,5.526a1.306,1.306,0,0,1-.39.492.216.216,0,0,1-.132.046.321.321,0,0,1-.18-.078,1.459,1.459,0,0,1-.32-.382,4.14,4.14,0,0,1-.523-1.663H5.5A5.879,5.879,0,0,1,5.027,14.579Zm.6-3.083c-.013.221,0,.281-.015.5H3.388c-.009-.158-.007-.25-.007-.5.01-.157.007-.253.007-.5H5.613A3.683,3.683,0,0,1,5.628,11.5ZM7.8,10H6.4a6.506,6.506,0,0,0-.546-1.865A3.7,3.7,0,0,1,7.8,10ZM5.863,14.852a7.291,7.291,0,0,0,.53-1.858H7.8A3.592,3.592,0,0,1,5.863,14.852ZM8.1,12H6.487c.01-.313.008-.506.008-1H8.1A4.072,4.072,0,0,1,8.1,12Z" />
  </g>
</svg>
